<?xml version="1.0" encoding="UTF-8"?>
<svg id="Layer_2" data-name="Layer 2" xmlns="http://www.w3.org/2000/svg" viewBox="0 0 342.33 303.02">
  <defs>
    <style>
      .cls-1 {
        fill: #f8f4eb;
      }

      .cls-2 {
        fill: #ffbf00;
      }
    </style>
  </defs>
  <g id="Layer_1-2" data-name="Layer 1">
    <g>
      <path class="cls-2" d="M334.13,75.66c-.77-20.93-1.54-41.85-2.31-62.78-.1-2.65-2-4.21-4.5-4.5C275.5,2.3,223.32-.48,171.16.07,119.01-.48,66.83,2.3,15.01,8.39c-2.5.29-4.4,1.85-4.5,4.5-.77,20.93-1.54,41.85-2.31,62.78C5.46,149.8,2.73,223.93,0,298.07c-.06,1.59.98,3.21,2.41,4,.75.62,1.75.99,3.01.95,85.66-2.88,171.34-2.84,257.02-1.66,24.11.33,48.23.73,72.34,1.13.33,0,.63-.02.92-.07.71.05,1.41.1,2.12.15,2.37.17,4.58-2.2,4.5-4.5-2.73-74.14-5.46-148.27-8.19-222.41ZM176.44,116.29h99.69v17.55h-99.69v-17.55ZM65.7,116.29h99.69v17.55h-99.69v-17.55Z"/>
      <path class="cls-1" d="M129.59,116.29h-63.89v17.55h61.22c-.35-1.68-.54-3.42-.54-5.2,0-4.45,1.16-8.64,3.21-12.35Z"/>
      <path d="M126.38,128.64c0,1.78.19,3.52.54,5.2h38.46v-17.55h-35.79c-2.05,3.71-3.21,7.91-3.21,12.35Z"/>
      <path class="cls-1" d="M240.33,116.29h-63.89v17.55h61.22c-.35-1.68-.54-3.42-.54-5.2,0-4.45,1.16-8.64,3.21-12.35Z"/>
      <path d="M237.11,128.64c0,1.78.19,3.52.54,5.2h38.46v-17.55h-35.79c-2.05,3.71-3.21,7.91-3.21,12.35Z"/>
    </g>
  </g>
</svg>